<svg xmlns="http://www.w3.org/2000/svg" viewBox="0 0 472.16 471.23"><defs><style>.a{fill:#45454a;}</style></defs><title>logo-mobile</title><path class="a" d="M190.35,392.81Q147.62,280.66,124,215.94T77.93,79.55l-.56,29.2q-5.06,194.47-6.18,277.43a136.45,136.45,0,0,1-.56,14.6q0,22.57-1.69,41.81l42.16-2.66v29.2H3.73v-21.9q23.61-.65,30.63-15.6t8.15-45.46L54.88,31.1l-40.47,2V4.55h86L176.86,213q41.59,115.48,64.08,175.22h1.12q6.75-19.91,28.67-85.62,21.35-63.71,48.9-140,32-88.93,55.08-158H457.9v21.9q-20.24-.65-29.79,12.94t-9.56,46.13l.56,13.27,14.61,302q1.12,15.28,1.12,41.15l41-2v29.2H350v-21.9q21.92-.65,29.79-14.93t7.87-44.8q0-12.6-.56-19.25L372.46,85.52q-1.13,3.33-3.09,8.63t-4.22,12.61l-126.47,369H221.82Z" transform="translate(-3.73 -4.55)"/></svg>