<svg xmlns="http://www.w3.org/2000/svg" viewBox="0 0 2904.63 200.69"><defs><style>.a{fill:#45454a;}.b{fill:#3c52a4;stroke:#45454a;stroke-miterlimit:10;}</style></defs><title>logo</title><path class="a" d="M112.34,177.83q-19.69-43.77-30.56-69T60.54,55.58L60.28,67Q58,142.87,57.43,175.24a45.16,45.16,0,0,1-.26,5.7,159.08,159.08,0,0,1-.78,16.32l19.42-1v11.4H26.35v-8.55q10.88-.25,14.12-6.09t3.76-17.74l5.7-138.56-18.65.78V26.32H70.9l35.22,81.33q19.16,45.07,29.53,68.38h.52q3.11-7.77,13.21-33.41,9.84-24.86,22.53-54.65,14.76-34.7,25.38-61.64h38.33v8.55q-9.32-.25-13.73,5.05t-4.4,18l.26,5.18,6.73,117.84q.52,6,.52,16.06l18.91-.78v11.4h-58v-8.55q10.1-.25,13.73-5.83t3.63-17.48q0-4.92-.26-7.51L196.25,57.91q-.52,1.3-1.42,3.37t-1.94,4.92l-58.27,144h-7.77Z" transform="translate(-26.35 -11.57)"/><path class="a" d="M264.11,199.84q7.51,0,10.75-3.76a17.2,17.2,0,0,0,3.88-9.58q.64-5.83.65-18.26V109.2a153.52,153.52,0,0,1,1-16.83L262,93.4V82.52q15.28,0,21.89-1.81a24.21,24.21,0,0,0,10.23-5.18h7.51V180.16a111.3,111.3,0,0,1-1,17.61l16.32-.78v10.62H264.11ZM280.17,45.35A15.39,15.39,0,0,1,276,34.6a15.59,15.59,0,0,1,4.27-10.88q4.27-4.66,9.71-4.66a12.8,12.8,0,0,1,10,4.53,16,16,0,0,1,4,11,15.13,15.13,0,0,1-4.27,10.75,13.3,13.3,0,0,1-10,4.53A12.64,12.64,0,0,1,280.17,45.35Z" transform="translate(-26.35 -11.57)"/><path class="a" d="M363.57,203.73a54.77,54.77,0,0,1-19.94-22.79q-7.25-14.76-7.25-34.45,0-20.72,8.55-37.3a63.43,63.43,0,0,1,58-35.22,65,65,0,0,1,16.45,2.2,66.71,66.71,0,0,1,13.86,5.05V45.74A155.51,155.51,0,0,1,434,28.91l-18.39,1V19.06q15.28,0,21.89-1.81a24.21,24.21,0,0,0,10.23-5.18h7.51V180.16a160.48,160.48,0,0,1-1,17.61l18.39-1v10.88h-37a130.74,130.74,0,0,1-1.81-13.47,52.48,52.48,0,0,1-18.26,12.95,57.63,57.63,0,0,1-23.18,4.66A52.64,52.64,0,0,1,363.57,203.73Zm55-9.45A48.16,48.16,0,0,0,433.24,182q-.26-4.14-.26-14.25l.26-74.59q-12.18-9.06-28.75-9.06-18.65,0-30,15.41T363,140.27q0,26.42,10.1,42.61t28.49,16.19A35,35,0,0,0,418.6,194.28Z" transform="translate(-26.35 -11.57)"/><path class="a" d="M501.09,108.94q-4.92-14-6.73-21l-13.73.78V78.12h54.91v7.77q-13.21.26-13.21,11.91,0,6,3.37,16.06l20.2,61.38,7.77-23.05q16.06-47.14,24.86-74.07h10.62l34.45,98.94,24.86-71.74q4.4-13.21,7.77-17.35l-15,.78V78.12h45.07v7.77q-8.55.52-13.47,3a18.53,18.53,0,0,0-7.51,6.48,57.63,57.63,0,0,0-5.18,11l-37.3,102H612.46l-33.93-97.9-33.67,97.9H535Z" transform="translate(-26.35 -11.57)"/><path class="a" d="M725.26,203.34a59.28,59.28,0,0,1-22.66-24.09q-8.29-15.67-8.29-36.13a72.7,72.7,0,0,1,8.29-34.06,66,66,0,0,1,23.18-25.51A61.12,61.12,0,0,1,759.58,74a55,55,0,0,1,26.68,6.47,46.87,46.87,0,0,1,18.91,19.3q7,12.82,7,31.47L721,132.76q-.26,31.08,10.23,48.43t32.5,17.35q11.91,0,24.48-6.22t19.3-15.28l6.22,5.18a60.41,60.41,0,0,1-25.51,22.27q-15.67,7.25-30.69,7.25A62.65,62.65,0,0,1,725.26,203.34Zm62.55-81.46q0-15.54-7-26.68t-21-11.14q-32.12,0-38.07,37.81Z" transform="translate(-26.35 -11.57)"/><path class="a" d="M866,208.52a67.26,67.26,0,0,1-17.35-8.16l1,9.06H838.83l-1.55-44.55h8a37.77,37.77,0,0,0,5.83,18.91,38.31,38.31,0,0,0,14,13.08,37.68,37.68,0,0,0,18.52,4.79,37.19,37.19,0,0,0,19.81-5.31q8.67-5.3,8.68-15.15A17.91,17.91,0,0,0,907.85,169a34.92,34.92,0,0,0-10.62-8.16q-6.35-3.24-17.74-7.64a178,178,0,0,1-22-9.71,45,45,0,0,1-14.25-12.3q-6-7.77-6-19.68a38.87,38.87,0,0,1,4.14-17.09q4.14-8.55,14-14.5t26.16-6A55.87,55.87,0,0,1,898,76.56a45.84,45.84,0,0,1,15.67,8.55l-.52-9.84H924v45.32h-8.29a45.69,45.69,0,0,0-9.19-26q-8.42-11-23.7-11-11.66,0-18.52,5.83t-6.86,13.86A18.58,18.58,0,0,0,862,115.93a39.77,39.77,0,0,0,11.27,8.81,163.8,163.8,0,0,0,18.13,8,193.31,193.31,0,0,1,21.76,10.1,45.92,45.92,0,0,1,14.12,12.3q5.83,7.64,5.83,18.52,0,12.43-6.35,21a38.88,38.88,0,0,1-16.58,12.82,56.21,56.21,0,0,1-21.89,4.27A72.72,72.72,0,0,1,866,208.52Z" transform="translate(-26.35 -11.57)"/><path class="a" d="M968.58,164.1,969.1,89l-19.94.26V78.12q12.43-.25,21.11-11.27a73.87,73.87,0,0,0,12.82-25h8.81V78.12h43.51v10.1l-43.51.52q-.26,39.63-.39,54.91t-.13,17.09q0,18.39,4.4,27.32t15.28,8.94a24.87,24.87,0,0,0,13.34-4.14,39.05,39.05,0,0,0,11.53-11.4l7,5.7q-10.1,15-19.94,19.81a43.67,43.67,0,0,1-19.17,4.79Q968.32,211.76,968.58,164.1Z" transform="translate(-26.35 -11.57)"/><path class="a" d="M1209.45,177.83q-19.69-43.77-30.56-69t-21.24-53.22l-.26,11.4q-2.33,75.89-2.85,108.26a45.16,45.16,0,0,1-.26,5.7,158.94,158.94,0,0,1-.78,16.32l19.42-1v11.4h-49.47v-8.55q10.88-.25,14.12-6.09t3.75-17.74L1147,36.68l-18.65.78V26.32H1168l35.22,81.33q19.16,45.07,29.53,68.38h.52q3.11-7.77,13.21-33.41Q1256.33,117.74,1269,88q14.76-34.7,25.38-61.64h38.33v8.55q-9.32-.25-13.73,5.05t-4.4,18l.26,5.18,6.73,117.84q.52,6,.52,16.06l18.91-.78v11.4h-58v-8.55q10.1-.25,13.73-5.83t3.63-17.48q0-4.92-.26-7.51l-6.73-110.33q-.52,1.3-1.42,3.37T1290,66.2l-58.27,144H1224Z" transform="translate(-26.35 -11.57)"/><path class="a" d="M1389.84,203.34a59.28,59.28,0,0,1-22.66-24.09q-8.29-15.67-8.29-36.13a72.7,72.7,0,0,1,8.29-34.06,66,66,0,0,1,23.18-25.51,61.12,61.12,0,0,1,33.8-9.58,55,55,0,0,1,26.68,6.47,46.87,46.87,0,0,1,18.91,19.3q7,12.82,7,31.47l-91.17,1.55q-.26,31.08,10.23,48.43t32.5,17.35q11.91,0,24.47-6.22t19.3-15.28l6.22,5.18a60.41,60.41,0,0,1-25.51,22.27q-15.67,7.25-30.69,7.25A62.64,62.64,0,0,1,1389.84,203.34Zm62.55-81.46q0-15.54-7-26.68t-21-11.14q-32.12,0-38.07,37.81Z" transform="translate(-26.35 -11.57)"/><path class="a" d="M1525.17,203.73a54.77,54.77,0,0,1-19.94-22.79q-7.25-14.76-7.25-34.45,0-20.72,8.55-37.3a63.43,63.43,0,0,1,58-35.22,65,65,0,0,1,16.45,2.2,66.7,66.7,0,0,1,13.86,5.05V45.74a155.37,155.37,0,0,1,.78-16.83l-18.39,1V19.06q15.28,0,21.88-1.81a24.21,24.21,0,0,0,10.23-5.18h7.51V180.16a160.59,160.59,0,0,1-1,17.61l18.39-1v10.88h-37a130.47,130.47,0,0,1-1.81-13.47,52.49,52.49,0,0,1-18.26,12.95,57.63,57.63,0,0,1-23.18,4.66A52.64,52.64,0,0,1,1525.17,203.73Zm55-9.45a48.16,48.16,0,0,0,14.63-12.3q-.26-4.14-.26-14.25l.26-74.59q-12.18-9.06-28.75-9.06-18.65,0-30,15.41t-11.4,40.79q0,26.42,10.1,42.61t28.49,16.19A35,35,0,0,0,1580.21,194.28Z" transform="translate(-26.35 -11.57)"/><path class="a" d="M1653.37,199.84q7.51,0,10.75-3.76a17.19,17.19,0,0,0,3.88-9.58q.64-5.83.65-18.26V109.2a153.4,153.4,0,0,1,1-16.83l-18.39,1V82.52q15.28,0,21.88-1.81a24.21,24.21,0,0,0,10.23-5.18h7.51V180.16a111.36,111.36,0,0,1-1,17.61l16.32-.78v10.62h-52.84Zm16.06-154.49a15.38,15.38,0,0,1-4.14-10.75,15.59,15.59,0,0,1,4.27-10.88q4.27-4.66,9.71-4.66a12.8,12.8,0,0,1,10,4.53,16,16,0,0,1,4,11A15.13,15.13,0,0,1,1689,45.35a13.3,13.3,0,0,1-10,4.53A12.64,12.64,0,0,1,1669.43,45.35Z" transform="translate(-26.35 -11.57)"/><path class="a" d="M1757.1,203.73a58.88,58.88,0,0,1-23.18-23.05q-8.55-15-8.55-35.48a73.09,73.09,0,0,1,8.68-34.58,70.6,70.6,0,0,1,24.09-26.55A62.13,62.13,0,0,1,1793,74a65.86,65.86,0,0,1,24.86,4.4q10.88,4.41,17,11.65a24.09,24.09,0,0,1,6.09,15.8,14.5,14.5,0,0,1-3.37,9.84q-3.37,3.88-9.32,3.88-5.7,0-8.55-3.76a12.85,12.85,0,0,1-2.85-7.9q0-6.47,3.88-10.36a17.47,17.47,0,0,0-11-11,47,47,0,0,0-16.19-3A36.94,36.94,0,0,0,1772.12,90q-9.46,6.48-14.89,18.91t-5.44,29.79q0,17.35,5.57,30.82T1773,190.65a37.58,37.58,0,0,0,23.31,7.64,46.19,46.19,0,0,0,22.92-6.35A51.31,51.31,0,0,0,1837,176l6.73,5.18A63.24,63.24,0,0,1,1819,204q-15.15,7.77-29.66,7.77A65.94,65.94,0,0,1,1757.1,203.73Z" transform="translate(-26.35 -11.57)"/><path class="a" d="M1870.8,203.21q-10-8.55-10-22.27,0-15,12-25.38t30.3-15.41a130.07,130.07,0,0,1,36.65-4.79V119.3q0-16.83-4.92-26.29t-21-9.45a35.88,35.88,0,0,0-15.28,3.37A21.62,21.62,0,0,0,1888,97q3.36,3.63,3.37,9.84a11.52,11.52,0,0,1-2.85,7.38q-2.85,3.5-8.29,3.5a10.85,10.85,0,0,1-8.55-3.5,13.33,13.33,0,0,1-3.11-9.19q0-8.55,6.6-15.67t18.39-11.27A78.9,78.9,0,0,1,1919.88,74q21.76,0,32.12,11.53t10.1,36.39l-.26,58.27a160.36,160.36,0,0,1-1,17.61l18.39-1v10.88h-37q-.78-3.88-1.81-14.76-18.91,18.91-40.66,18.91Q1880.77,211.76,1870.8,203.21Zm52.71-10a63.92,63.92,0,0,0,16.32-11.53q-.26-3.88-.26-13.21l.26-24.35q-21.24.78-37.81,8.68t-16.58,24.22q0,9.59,5.7,14.76t14.5,5.18A41.65,41.65,0,0,0,1923.5,193.24Z" transform="translate(-26.35 -11.57)"/><path class="a" d="M1997.06,199.84q7.51,0,10.75-3.76a17.19,17.19,0,0,0,3.88-9.58q.64-5.83.65-18.26V109.2a104.24,104.24,0,0,1,1-16.83l-18.39.78V82.52h8q9.84,0,14.25-1.68a25.45,25.45,0,0,0,8.29-5.31h7.51q1,10.1,1.29,25.64a63.06,63.06,0,0,1,18.52-18.91q12-8.29,25-8.29a20.09,20.09,0,0,1,13,4.14q5.18,4.15,5.18,12.17a13.45,13.45,0,0,1-3.24,8.29q-3.24,4.15-9.19,4.14a11.67,11.67,0,0,1-9.32-4.27,12.59,12.59,0,0,1-2.85-10.23q-9.85-.25-19.81,7.51a64.78,64.78,0,0,0-17,20.72l.26,63.71a111.36,111.36,0,0,1-1,17.61l16.32-.78v10.62h-53.09Z" transform="translate(-26.35 -11.57)"/><path class="a" d="M2137.83,203.34a59.28,59.28,0,0,1-22.66-24.09q-8.29-15.67-8.29-36.13a72.7,72.7,0,0,1,8.29-34.06,66,66,0,0,1,23.18-25.51,61.12,61.12,0,0,1,33.8-9.58,55,55,0,0,1,26.68,6.47,46.87,46.87,0,0,1,18.91,19.3q7,12.82,7,31.47l-91.17,1.55q-.26,31.08,10.23,48.43t32.5,17.35q11.91,0,24.47-6.22t19.3-15.28l6.22,5.18a60.41,60.41,0,0,1-25.51,22.27q-15.67,7.25-30.69,7.25A62.64,62.64,0,0,1,2137.83,203.34Zm62.55-81.46q0-15.54-7-26.68t-21-11.14q-32.12,0-38.07,37.81Z" transform="translate(-26.35 -11.57)"/><path class="b" d="M2318.73,199.07q9.06-.25,13-4.14a14.69,14.69,0,0,0,4.4-9.19q.52-5.31.52-18.52V55.32q0-10.88.78-18.65l-18.65,1V26.32q36.26-.52,57.76-.52,38.59,0,58.4,13.47t19.81,39.63a56.82,56.82,0,0,1-7.9,28.75q-7.9,13.73-27.19,22.79t-51.15,9.06q-6,0-9.32-.26v37.55a195.65,195.65,0,0,1-.78,20.46l23.83-1.29v11.65h-63.45Zm84.3-75.5a46.14,46.14,0,0,0,19.42-16.83q7.12-11,7.12-25.77,0-23.31-14.25-34.19T2376,35.9q-8.81,0-12.3,3.63a14.25,14.25,0,0,0-4,8.68q-.52,5.05-.52,18.52v61.9a146.79,146.79,0,0,0,16.83.78A62.42,62.42,0,0,0,2403,123.57Z" transform="translate(-26.35 -11.57)"/><path class="b" d="M2468.69,199.84q7.51,0,10.75-3.76a17.2,17.2,0,0,0,3.88-9.58q.64-5.83.65-18.26V45.74a155.37,155.37,0,0,1,.78-16.83l-18.39,1V19.06q15.54,0,22.14-1.81a24.21,24.21,0,0,0,10.23-5.18h7.51l.26,168.09a105.12,105.12,0,0,1-1.29,17.61l16.32-.78v10.62h-52.84Z" transform="translate(-26.35 -11.57)"/><path class="b" d="M2549.11,203.21q-10-8.55-10-22.27,0-15,12-25.38t30.3-15.41a130.07,130.07,0,0,1,36.65-4.79V119.3q0-16.83-4.92-26.29t-21-9.45a35.88,35.88,0,0,0-15.28,3.37A21.62,21.62,0,0,0,2566.33,97q3.36,3.63,3.37,9.84a11.52,11.52,0,0,1-2.85,7.38q-2.85,3.5-8.29,3.5a10.85,10.85,0,0,1-8.55-3.5,13.33,13.33,0,0,1-3.11-9.19q0-8.55,6.6-15.67t18.39-11.27A78.9,78.9,0,0,1,2598.19,74q21.76,0,32.12,11.53t10.1,36.39l-.26,58.27a160.36,160.36,0,0,1-1,17.61l18.39-1v10.88h-37q-.78-3.88-1.81-14.76-18.91,18.91-40.66,18.91Q2559.08,211.76,2549.11,203.21Zm52.71-10a63.92,63.92,0,0,0,16.32-11.53q-.26-3.88-.26-13.21l.26-24.35q-21.24.78-37.81,8.68t-16.58,24.22q0,9.59,5.7,14.76t14.5,5.18A41.65,41.65,0,0,0,2601.81,193.24Z" transform="translate(-26.35 -11.57)"/><path class="b" d="M2675.36,199.84q7.51,0,10.75-3.76a16.18,16.18,0,0,0,3.75-9.32q.52-5.57.78-18.52l.26-59.05a104.36,104.36,0,0,1,1-16.83l-18.39,1V82.52q15.28,0,21-1.68a23.56,23.56,0,0,0,9.58-5.31h7.51q.52,4.92,1,15.8a73.7,73.7,0,0,1,20.07-12.56A56.33,56.33,0,0,1,2754.88,74q22.53,0,32.89,14.12t10.36,43.9v48.17a111.24,111.24,0,0,1-1,17.61l16.32-.78v10.62h-52.84v-7.77q7.51,0,10.75-3.76a17.2,17.2,0,0,0,3.89-9.58q.64-5.83.65-18.26V132q-.26-22.27-7.25-33.54t-22-11.27a40.58,40.58,0,0,0-18.52,4.66A45,45,0,0,0,2712.92,104q.25,2.85.26,10.1l-.26,66a111.36,111.36,0,0,1-1,17.61l16.32-.78v10.62h-52.84Z" transform="translate(-26.35 -11.57)"/><path class="b" d="M2863.4,208.52a67.25,67.25,0,0,1-17.35-8.16l1,9.06H2836.2l-1.55-44.55h8a37.77,37.77,0,0,0,5.83,18.91,38.31,38.31,0,0,0,14,13.08,37.67,37.67,0,0,0,18.52,4.79,37.19,37.19,0,0,0,19.81-5.31q8.67-5.3,8.68-15.15a17.92,17.92,0,0,0-4.27-12.17,34.91,34.91,0,0,0-10.62-8.16q-6.35-3.24-17.74-7.64a178,178,0,0,1-22-9.71,45,45,0,0,1-14.25-12.3q-6-7.77-6-19.68a38.86,38.86,0,0,1,4.14-17.09q4.14-8.55,14-14.5t26.16-6a55.87,55.87,0,0,1,16.45,2.59,45.84,45.84,0,0,1,15.67,8.55l-.52-9.84h10.88v45.32h-8.29a45.68,45.68,0,0,0-9.19-26q-8.42-11-23.7-11-11.66,0-18.52,5.83t-6.86,13.86a18.58,18.58,0,0,0,4.53,12.69,39.78,39.78,0,0,0,11.27,8.81,163.89,163.89,0,0,0,18.13,8,193.39,193.39,0,0,1,21.76,10.1,45.92,45.92,0,0,1,14.12,12.3q5.83,7.64,5.83,18.52,0,12.43-6.35,21a38.88,38.88,0,0,1-16.58,12.82,56.21,56.21,0,0,1-21.89,4.27A72.72,72.72,0,0,1,2863.4,208.52Z" transform="translate(-26.35 -11.57)"/></svg>